<svg width="15" height="18" viewBox="0 0 15 18" fill="none" xmlns="http://www.w3.org/2000/svg">
<path fill-rule="evenodd" clip-rule="evenodd" d="M1.89479 3.2825V15.4246C1.89479 15.9777 2.64671 16.2038 3.05313 15.8924L6.81331 12.9322C7.1728 12.6491 7.73314 12.6491 8.09272 12.9322L11.853 15.8925C12.0618 16.0527 12.3397 16.0833 12.6168 15.9851C12.8966 15.8859 13.0769 15.6883 13.1053 15.4712V3.25203C13.1053 2.55147 12.3806 1.95256 11.5931 1.95256H3.50109C2.73294 1.95256 1.97244 2.53946 1.89479 3.2825ZM0.0286653 3.19713C0.153532 1.70938 1.64303 0.387207 3.50109 0.387207H11.5931C13.4401 0.387207 14.9737 1.71028 14.9737 3.25203V15.5046C14.9737 15.5229 14.973 15.5412 14.9714 15.5596C14.8271 17.2801 12.2419 18.3242 10.5829 17.0406L10.577 17.036L7.45297 14.5766L4.32313 17.0406C2.65895 18.3282 0.0263672 17.2728 0.0263672 15.4246V3.25203C0.0263672 3.23371 0.0271332 3.21541 0.0286653 3.19713Z" fill="black"/>
</svg>
