<svg width="60" height="60" viewBox="0 0 60 60" fill="none" xmlns="http://www.w3.org/2000/svg">
<g opacity="0.954">
<path fill-rule="evenodd" clip-rule="evenodd" d="M27.3047 0C29.1015 0 30.8985 0 32.6953 0C44.5161 1.5055 52.895 7.67738 57.832 18.5156C58.945 21.3655 59.6675 24.2952 60 27.3047C60 29.1015 60 30.8985 60 32.6953C58.7726 43.1171 53.6555 50.9883 44.6484 56.3086C40.8945 58.335 36.9101 59.5655 32.6953 60C30.8985 60 29.1015 60 27.3047 60C16.9164 58.7238 9.04533 53.6066 3.69141 44.6484C1.66495 40.8943 0.434483 36.91 0 32.6953C0 30.8985 0 29.1015 0 27.3047C1.4532 15.8611 7.35164 7.59939 17.6953 2.51953C20.7881 1.19964 23.9912 0.359796 27.3047 0ZM29.8828 3.51562C39.7431 3.88344 47.3408 8.18031 52.6758 16.4062C56.8615 23.7918 57.5255 31.4871 54.668 39.4922C50.6579 48.8912 43.6071 54.4576 33.5156 56.1914C24.3225 57.1639 16.5686 54.2929 10.2539 47.5781C3.57491 39.4985 1.93429 30.4751 5.33203 20.5078C8.38432 13.1196 13.6382 7.98287 21.0938 5.09766C23.9631 4.13789 26.8928 3.61055 29.8828 3.51562Z" fill="black"/>
<path fill-rule="evenodd" clip-rule="evenodd" d="M14.5312 17.1094C17.8491 18.651 21.1693 20.194 24.4922 21.7383C24.6066 21.9899 24.587 22.2438 24.4336 22.5C24.0182 23.4107 23.5494 24.27 23.0273 25.0781C19.6633 23.5405 16.3235 21.9585 13.0078 20.332C13.532 19.2641 14.0399 18.19 14.5312 17.1094Z" fill="black"/>
<path fill-rule="evenodd" clip-rule="evenodd" d="M45.2344 17.1094C45.6486 17.5827 45.9808 18.1296 46.2305 18.75C46.4292 19.2451 46.644 19.7334 46.875 20.2148C46.858 20.3053 46.819 20.3835 46.7578 20.4492C43.5547 21.9727 40.3515 23.4961 37.1485 25.0195C36.998 25.0997 36.8612 25.0801 36.7383 24.9609C36.2651 23.9169 35.7768 22.8818 35.2735 21.8555C38.6044 20.2678 41.9248 18.6858 45.2344 17.1094Z" fill="black"/>
<path fill-rule="evenodd" clip-rule="evenodd" d="M18.0469 26.6017C20.2879 26.3244 21.7137 27.2619 22.3242 29.4142C22.5245 31.9287 21.3722 33.3349 18.8672 33.6329C16.3622 33.3349 15.2099 31.9287 15.4102 29.4142C15.7915 27.9981 16.6704 27.0606 18.0469 26.6017Z" fill="black"/>
<path fill-rule="evenodd" clip-rule="evenodd" d="M40.3125 26.6017C42.5535 26.3244 43.9793 27.2619 44.5898 29.4142C44.7901 31.9287 43.6378 33.3349 41.1328 33.6329C38.6278 33.3349 37.4755 31.9287 37.6758 29.4142C38.0571 27.9981 38.936 27.0606 40.3125 26.6017Z" fill="black"/>
<path fill-rule="evenodd" clip-rule="evenodd" d="M28.5938 39.4924C32.4329 39.1281 35.519 40.4563 37.8516 43.4768C36.9455 44.2458 35.9884 44.9489 34.9805 45.5862C32.7382 43.0126 30.0625 42.4462 26.9531 43.8869C26.2767 44.3092 25.6908 44.8365 25.1953 45.469C25.094 45.5959 24.9768 45.6153 24.8438 45.5276C23.9258 44.8628 23.0275 44.1792 22.1484 43.4768C23.7675 41.281 25.9159 39.953 28.5938 39.4924Z" fill="black"/>
</g>
</svg>
