<svg width="60" height="60" viewBox="0 0 60 60" fill="none" xmlns="http://www.w3.org/2000/svg">
<g opacity="0.97">
<path fill-rule="evenodd" clip-rule="evenodd" d="M27.4219 0C29.1407 0 30.8593 0 32.5781 0C43.1314 1.24152 51.0806 6.43683 56.4258 15.5859C58.401 19.3099 59.5924 23.2553 60 27.4219C60 29.1407 60 30.8593 60 32.5781C58.7585 43.1314 53.5631 51.0806 44.4141 56.4258C40.6901 58.401 36.7447 59.5924 32.5781 60C30.8593 60 29.1407 60 27.4219 60C16.8686 58.7585 8.91937 53.5631 3.57422 44.4141C1.59901 40.6901 0.407604 36.7447 0 32.5781C0 30.8593 0 29.1407 0 27.4219C1.24152 16.8686 6.43683 8.91937 15.5859 3.57422C19.3099 1.59901 23.2553 0.407604 27.4219 0ZM28.3594 3.63281C38.7262 3.41511 46.7536 7.59479 52.4414 16.1719C56.6911 23.4246 57.4723 31.0418 54.7852 39.0234C51.1658 47.9723 44.6619 53.5778 35.2734 55.8398C24.6527 57.548 15.9223 54.2863 9.08203 46.0547C3.53112 38.3729 2.24205 30.0136 5.21484 20.9766C8.83414 12.0277 15.3381 6.42221 24.7266 4.16016C25.9505 3.9538 27.1614 3.77802 28.3594 3.63281ZM16.1719 34.9219C25.3907 34.9219 34.6093 34.9219 43.8281 34.9219C43.1583 39.2903 40.9707 42.6693 37.2656 45.0586C32.4219 47.7929 27.5781 47.7929 22.7344 45.0586C19.0293 42.6693 16.8417 39.2903 16.1719 34.9219Z" fill="black"/>
<path fill-rule="evenodd" clip-rule="evenodd" d="M17.461 19.8045C19.806 19.681 21.8372 20.4037 23.5547 21.9725C24.203 22.7769 24.2616 23.6166 23.7305 24.492C23.2138 25.0809 22.5693 25.2957 21.7969 25.1366C21.0195 24.6693 20.2382 24.2006 19.4532 23.7303C18.5017 23.4691 17.5642 23.5081 16.6407 23.8475C15.9742 24.2807 15.3101 24.7105 14.6485 25.1366C13.0845 25.2521 12.3228 24.5294 12.3633 22.9686C12.5934 22.2304 13.0427 21.6641 13.711 21.2694C14.8584 20.4903 16.1083 20.002 17.461 19.8045Z" fill="black"/>
<path fill-rule="evenodd" clip-rule="evenodd" d="M41.0156 19.8049C43.4591 19.675 45.549 20.4562 47.2851 22.1487C47.9778 23.3185 47.763 24.2755 46.6406 25.0198C46.222 25.1844 45.7923 25.2234 45.3515 25.1369C44.6899 24.7109 44.0258 24.2811 43.3594 23.8479C42.4358 23.5085 41.4983 23.4695 40.5469 23.7307C39.7618 24.201 38.9805 24.6697 38.2031 25.1369C36.8389 25.2937 36.0576 24.6884 35.8594 23.3205C35.9124 22.8393 36.0882 22.4095 36.3867 22.0315C37.7135 20.8282 39.2565 20.0859 41.0156 19.8049Z" fill="black"/>
<path fill-rule="evenodd" clip-rule="evenodd" d="M13.5938 31.2896C24.5313 31.27 35.4688 31.2896 46.4063 31.3482C47.0692 31.5571 47.4794 32.0063 47.6367 32.6958C47.5617 39.586 44.6125 44.8398 38.7891 48.4575C32.9297 51.5044 27.0703 51.5044 21.211 48.4575C15.3876 44.8398 12.4383 39.586 12.3633 32.6958C12.5333 31.9966 12.9435 31.5278 13.5938 31.2896ZM16.1719 34.9219C16.8417 39.2903 19.0293 42.6693 22.7344 45.0586C27.5781 47.7929 32.4219 47.7929 37.2656 45.0586C40.9707 42.6693 43.1583 39.2903 43.8281 34.9219C34.6093 34.9219 25.3907 34.9219 16.1719 34.9219Z" fill="black"/>
</g>
</svg>
