<svg width="60" height="60" viewBox="0 0 60 60" fill="none" xmlns="http://www.w3.org/2000/svg">
<g opacity="0.958">
<path fill-rule="evenodd" clip-rule="evenodd" d="M27.5352 0.0267336C40.278 -0.422024 49.8908 4.77894 56.3735 15.6296C60.3102 23.2106 61.0418 31.0932 58.5683 39.2778C55.082 49.1423 48.3551 55.6638 38.3876 58.8423C28.0484 61.5296 18.7405 59.5385 10.4639 52.8693C2.62505 45.7812 -0.809528 36.9437 0.160106 26.3566C1.89233 15.1447 7.88761 7.16047 18.1459 2.40374C21.1704 1.12987 24.3 0.337536 27.5352 0.0267336ZM29.73 3.80556C38.8579 4.07048 46.1132 7.84931 51.4959 15.142C56.702 23.1734 57.5148 31.6249 53.9347 40.4967C49.0649 50.4213 41.0779 55.6629 29.9739 56.2215C18.8682 55.6623 10.8813 50.4207 6.01312 40.4967C2.43288 31.6202 3.2458 23.1686 8.45188 15.142C13.7235 7.98627 20.8161 4.20744 29.73 3.80556Z" fill="black"/>
<path fill-rule="evenodd" clip-rule="evenodd" d="M20.2188 18.6768C23.4608 18.9719 24.7817 20.719 24.1818 23.9184C22.9162 26.2228 21.0668 26.8526 18.6336 25.8078C16.6283 24.2283 16.2829 22.3389 17.5971 20.1395C18.2949 19.3139 19.1688 18.8263 20.2188 18.6768Z" fill="black"/>
<path fill-rule="evenodd" clip-rule="evenodd" d="M38.9973 18.6768C41.4972 18.7584 42.8791 20.0384 43.1431 22.5165C42.9284 24.8237 41.6684 26.1036 39.3631 26.3563C36.9678 26.1765 35.7079 24.8966 35.583 22.5165C35.7574 20.372 36.8954 19.0921 38.9973 18.6768Z" fill="black"/>
<path fill-rule="evenodd" clip-rule="evenodd" d="M28.2667 31.8425C34.6077 31.3998 39.7495 33.6345 43.6918 38.5469C44.1508 39.2084 44.5572 39.8991 44.9112 40.6191C45.157 42.4456 44.3644 43.2786 42.5334 43.118C42.1982 42.9811 41.8934 42.7983 41.6189 42.5695C38.3643 37.256 33.6289 35.0415 27.4131 35.9261C23.287 36.8009 20.198 39.0764 18.1459 42.7523C16.8321 43.5164 15.7956 43.2522 15.0364 41.96C14.9377 41.3801 14.9784 40.8112 15.1584 40.2534C18.1668 35.3458 22.5362 32.5422 28.2667 31.8425Z" fill="black"/>
</g>
</svg>
