<svg width="60" height="60" viewBox="0 0 60 60" fill="none" xmlns="http://www.w3.org/2000/svg">
<g opacity="0.965">
<path fill-rule="evenodd" clip-rule="evenodd" d="M27.3047 0C29.1015 0 30.8985 0 32.6953 0C44.3872 1.51741 52.7271 7.61116 57.7148 18.2812C58.9027 21.1968 59.6644 24.2046 60 27.3047C60 29.1015 60 30.8985 60 32.6953C58.4825 44.3872 52.3888 52.7271 41.7188 57.7148C38.8034 58.9027 35.7955 59.6644 32.6953 60C30.8985 60 29.1015 60 27.3047 60C15.6125 58.4823 7.27272 52.3886 2.28516 41.7188C1.09733 38.8032 0.335616 35.7954 0 32.6953C0 30.8985 0 29.1015 0 27.3047C1.51741 15.6128 7.61116 7.27291 18.2812 2.28516C21.1968 1.09733 24.2046 0.335616 27.3047 0ZM29.8828 3.75C41.143 4.2692 49.2095 9.58171 54.082 19.6875C57.4098 28.146 56.7457 36.2711 52.0898 44.0625C46.8146 51.8286 39.4513 55.8912 30 56.25C20.5487 55.8912 13.1854 51.8286 7.91016 44.0625C3.46714 36.7205 2.64683 28.9861 5.44922 20.8594C8.1938 13.9741 12.9398 8.99365 19.6875 5.91797C22.9663 4.55537 26.3647 3.83271 29.8828 3.75ZM29.2969 33.3984C30.9267 33.266 32.2354 33.852 33.2227 35.1562C35.0721 37.9338 35.4237 40.9027 34.2773 44.0625C33.5432 46.1065 32.1173 47.3174 30 47.6953C27.8827 47.3174 26.4568 46.1065 25.7227 44.0625C24.5763 40.9027 24.9279 37.9338 26.7773 35.1562C27.4591 34.3194 28.299 33.7335 29.2969 33.3984Z" fill="black"/>
<path fill-rule="evenodd" clip-rule="evenodd" d="M20.625 17.6951C23.2453 17.6398 24.7297 18.9093 25.0781 21.5037C24.6952 24.2305 23.1327 25.4806 20.3906 25.2537C18.0735 24.4982 17.1164 22.9161 17.5195 20.5076C18.0258 18.9654 19.0609 18.0279 20.625 17.6951Z" fill="black"/>
<path fill-rule="evenodd" clip-rule="evenodd" d="M38.3203 17.6953C40.9114 17.7087 42.3567 18.9977 42.6562 21.5625C42.2436 24.2607 40.6812 25.4912 37.9687 25.2539C35.4701 24.417 34.552 22.7177 35.2148 20.1562C35.8303 18.7866 36.8655 17.9663 38.3203 17.6953Z" fill="black"/>
<path fill-rule="evenodd" clip-rule="evenodd" d="M28.9453 29.5312C32.644 29.3588 35.3979 30.8823 37.207 34.1015C38.7747 37.1061 39.2043 40.2702 38.4961 43.5937C37.8716 46.4023 36.4068 48.6485 34.1016 50.332C30.294 52.3271 26.9152 51.7607 23.9649 48.6328C21.0981 44.7395 20.4341 40.4816 21.9727 35.8593C23.2164 32.5243 25.5407 30.4149 28.9453 29.5312ZM29.2969 33.3984C28.299 33.7335 27.4591 34.3194 26.7773 35.1562C24.9279 37.9338 24.5763 40.9027 25.7227 44.0625C26.4568 46.1065 27.8827 47.3174 30 47.6953C32.1173 47.3174 33.5432 46.1065 34.2773 44.0625C35.4237 40.9027 35.0721 37.9338 33.2227 35.1562C32.2354 33.852 30.9267 33.266 29.2969 33.3984Z" fill="black"/>
</g>
</svg>
