<svg width="18" height="18" viewBox="0 0 18 18" fill="none" xmlns="http://www.w3.org/2000/svg">
<path d="M15.3697 2.4389C15.0032 2.01849 14.568 1.68498 14.0891 1.45745C13.6101 1.22991 13.0967 1.11279 12.5783 1.11279C12.0598 1.11279 11.5464 1.22991 11.0675 1.45745C10.5885 1.68498 10.1533 2.01849 9.78683 2.4389L9.02618 3.311L8.26552 2.4389C7.52518 1.59009 6.52107 1.11323 5.47407 1.11323C4.42708 1.11323 3.42296 1.59009 2.68262 2.4389C1.94229 3.28771 1.52637 4.43895 1.52637 5.63935C1.52637 6.83975 1.94229 7.99099 2.68262 8.8398L3.44328 9.7119L9.02618 16.1128L14.6091 9.7119L15.3697 8.8398C15.7364 8.41958 16.0273 7.92065 16.2258 7.3715C16.4242 6.82236 16.5264 6.23377 16.5264 5.63935C16.5264 5.04493 16.4242 4.45634 16.2258 3.9072C16.0273 3.35805 15.7364 2.85912 15.3697 2.4389Z" stroke="black" stroke-width="2" stroke-linecap="round" stroke-linejoin="round"/>
</svg>
