<svg width="16" height="18" viewBox="0 0 16 18" fill="none" xmlns="http://www.w3.org/2000/svg">
<path d="M15.5418 3.36C15.1753 2.88 14.6621 2.56 14.0756 2.56H5.42497C4.98511 2.56 4.69187 2.88 4.69187 3.36C4.69187 3.84 4.98511 4.16 5.42497 4.16H14.0023C14.1489 4.16 14.2955 4.24 14.2955 4.32C14.3688 4.48 14.4422 4.64 14.3688 4.8L13.3425 9.68C13.1959 10.48 12.5361 11.04 11.803 11.04H7.11111C6.37801 11.04 5.79152 10.56 5.57159 9.76L4.98511 7.76L3.44559 2.24C3.07904 0.88 1.97938 0 0.733104 0C0.293242 0 0 0.32 0 0.8C0 1.28 0.293242 1.6 0.733104 1.6C1.31959 1.6 1.90607 2.08 2.05269 2.72L2.56587 4.56L4.17869 10.24C4.54525 11.68 5.71821 12.64 7.11111 12.64H11.9496C13.4158 12.64 14.5888 11.52 14.9553 10L15.9817 5.12C16.055 4.56 15.9084 3.92 15.5418 3.36Z" fill="white"/>
<path d="M6.52448 13.4397C5.49813 13.4397 4.61841 14.3997 4.61841 15.5197C4.61841 16.6397 5.49813 17.5997 6.52448 17.5997C7.55083 17.5997 8.43056 16.6397 8.43056 15.5197C8.43056 14.3997 7.55083 13.4397 6.52448 13.4397ZM6.52448 15.9997C6.30455 15.9997 6.08462 15.7597 6.08462 15.5197C6.08462 15.2797 6.30455 15.0397 6.52448 15.0397C6.74442 15.0397 6.96435 15.2797 6.96435 15.5197C6.96435 15.7597 6.74442 15.9997 6.52448 15.9997Z" fill="white"/>
<path d="M12.3162 13.4397C11.2899 13.4397 10.4102 14.3997 10.4102 15.5197C10.4102 16.6397 11.2899 17.5997 12.3162 17.5997C13.3426 17.5997 14.2223 16.6397 14.2223 15.5197C14.2223 14.3997 13.3426 13.4397 12.3162 13.4397ZM12.3162 15.9997C12.0963 15.9997 11.8764 15.7597 11.8764 15.5197C11.8764 15.2797 12.0963 15.0397 12.3162 15.0397C12.5362 15.0397 12.7561 15.2797 12.7561 15.5197C12.7561 15.7597 12.5362 15.9997 12.3162 15.9997Z" fill="white"/>
</svg>
