<svg width="16" height="16" viewBox="0 0 16 16" fill="none" xmlns="http://www.w3.org/2000/svg">
<path d="M15.6214 5.87739L11.8713 9.86132C11.4761 10.2813 10.8172 9.96992 10.8172 9.35015V7.24186C7.05223 7.27028 5.46392 8.27056 6.52618 12.262C6.64293 12.7006 6.19165 13.0403 5.87499 12.7697C4.86022 11.9025 3.9422 10.2438 3.9422 8.5695C3.9422 4.3526 7.00467 3.5158 10.8172 3.49201V1.38219C10.8172 0.761862 11.4765 0.451491 11.8713 0.871022L15.6214 4.85504C15.8824 5.13228 15.8826 5.59992 15.6214 5.87739ZM10.8172 11.786V13.8037H2.48387V4.42872H3.8098C3.85189 4.42869 3.89353 4.41909 3.93223 4.40049C3.97093 4.3819 4.00589 4.3547 4.03501 4.32052C4.42441 3.86443 4.87452 3.50343 5.3635 3.21673C5.65335 3.04678 5.54595 2.55372 5.2191 2.55372H2.0672C1.37684 2.55372 0.8172 3.18331 0.8172 3.95997V14.2725C0.8172 15.0491 1.37684 15.6787 2.0672 15.6787H11.2339C11.9242 15.6787 12.4839 15.0491 12.4839 14.2725V11.6707C12.4839 11.4279 12.2704 11.2586 12.0669 11.3396C11.7816 11.4531 11.4761 11.4871 11.1766 11.4385C10.9873 11.4079 10.8172 11.5708 10.8172 11.786Z" fill="black"/>
</svg>
